<?xml version="1.0" encoding="utf-8"?>
<!-- Generator: Adobe Illustrator 16.0.0, SVG Export Plug-In . SVG Version: 6.00 Build 0)  -->
<!DOCTYPE svg PUBLIC "-//W3C//DTD SVG 1.1//EN" "http://www.w3.org/Graphics/SVG/1.1/DTD/svg11.dtd">
<svg version="1.1" id="Layer_1" xmlns="http://www.w3.org/2000/svg" xmlns:xlink="http://www.w3.org/1999/xlink" x="0px" y="0px"
	 width="535.826px" height="429.801px" viewBox="0 0 535.826 429.801" enable-background="new 0 0 535.826 429.801"
	 xml:space="preserve">
<g>
	
		<ellipse transform="matrix(-0.0036 1 -1 -0.0036 456.2734 -26.6961)" fill="#FFFFFF" cx="241.437" cy="213.968" rx="49.578" ry="30.195"/>
	
		<ellipse transform="matrix(-0.0036 1 -1 -0.0036 320.5568 107.5615)" fill="#FFFFFF" cx="106.691" cy="213.482" rx="49.579" ry="30.196"/>
	<path fill="#FFFFFF" d="M276.302,305.346c-26.014,25.826-60.042,40.613-96.399,42.043l-0.102,27.59
		c-0.012,3.514-2.869,6.348-6.381,6.338c-3.514-0.016-6.352-2.871-6.338-6.383l0.1-27.59c-36.348-1.689-70.267-16.719-96.096-42.737
		c-2.796-2.813-2.779-7.364,0.037-10.159c2.815-2.798,7.365-2.779,10.159,0.036c23.125,23.289,53.441,36.812,85.951,38.478
		l0.166-46.062l-20.643-0.073l20.807-45.552l0.361-100.803c0.014-3.514,2.871-6.351,6.383-6.337c3.51,0.012,6.35,2.87,6.338,6.381
		l-0.361,100.807l20.479,45.698l-20.643-0.073l-0.166,46.062c32.521-1.433,62.934-14.737,86.223-37.86
		c2.815-2.797,7.366-2.779,10.161,0.039C279.135,298,279.116,302.55,276.302,305.346z"/>
</g>
</svg>
