<?xml version="1.0" encoding="utf-8"?>
<!-- Generator: Adobe Illustrator 16.0.0, SVG Export Plug-In . SVG Version: 6.00 Build 0)  -->
<!DOCTYPE svg PUBLIC "-//W3C//DTD SVG 1.1//EN" "http://www.w3.org/Graphics/SVG/1.1/DTD/svg11.dtd">
<svg version="1.1" id="Layer_1" xmlns="http://www.w3.org/2000/svg" xmlns:xlink="http://www.w3.org/1999/xlink" x="0px" y="0px"
	 width="535.826px" height="429.801px" viewBox="0 0 535.826 429.801" enable-background="new 0 0 535.826 429.801"
	 xml:space="preserve">
<path fill="#AAAAAA" d="M532.778,88.198c-7.656-23.363-32.805-36.095-56.17-28.438l-84.604,27.733
	c23.363-7.658,36.096-32.805,28.438-56.171C412.786,7.96,387.637-4.773,364.274,2.884L123.479,81.81
	C30.024,112.442-20.904,213.032,9.727,306.485c30.632,93.455,131.224,144.383,224.677,113.752l230.204-75.455
	c23.363-7.654,36.098-32.805,28.439-56.17c-7.658-23.361-32.807-36.096-56.17-28.438l52.895-17.334
	c23.363-7.66,36.098-32.807,28.439-56.172c-7.656-23.361-32.807-36.094-56.17-28.436l42.305-13.867
	C527.706,136.71,540.436,111.562,532.778,88.198z"/>
</svg>
