<?xml version="1.0" encoding="utf-8"?>
<!-- Generator: Adobe Illustrator 15.0.0, SVG Export Plug-In . SVG Version: 6.00 Build 0)  -->
<!DOCTYPE svg PUBLIC "-//W3C//DTD SVG 1.1//EN" "http://www.w3.org/Graphics/SVG/1.1/DTD/svg11.dtd">
<svg version="1.1" id="Layer_1" xmlns="http://www.w3.org/2000/svg" xmlns:xlink="http://www.w3.org/1999/xlink" x="0px" y="0px"
	 width="841.89px" height="595.28px" viewBox="0 0 841.89 595.28" enable-background="new 0 0 841.89 595.28" xml:space="preserve">
<path d="M691.29,165.877c-7.657-23.363-32.805-36.095-56.169-28.437l-84.605,27.733c23.363-7.658,36.096-32.805,28.438-56.171
	c-7.658-23.362-32.805-36.095-56.169-28.437L281.991,159.49c-93.455,30.632-144.383,131.223-113.752,224.676
	c30.632,93.454,131.223,144.383,224.677,113.751l230.203-75.454c23.363-7.656,36.096-32.806,28.438-56.171
	c-7.657-23.362-32.805-36.095-56.169-28.437l52.895-17.334c23.362-7.66,36.096-32.806,28.437-56.171
	c-7.656-23.362-32.806-36.094-56.169-28.437l42.305-13.866C686.217,214.39,698.948,189.241,691.29,165.877z"/>
<ellipse transform="matrix(0.0036 -1 1 0.0036 106.8633 690.5405)" fill="#FFFFFF" cx="399.94" cy="291.647" rx="49.577" ry="30.193"/>
<ellipse transform="matrix(0.0036 -1 1 0.0036 -26.9128 555.3176)" fill="#FFFFFF" cx="265.201" cy="291.164" rx="49.579" ry="30.194"/>
<path fill="#FFFFFF" d="M434.812,383.026c-26.012,25.826-60.04,40.614-96.397,42.044l-0.101,27.588
	c-0.012,3.513-2.87,6.348-6.382,6.338c-3.513-0.015-6.349-2.872-6.337-6.383l0.099-27.589
	c-36.347-1.691-70.266-16.719-96.095-42.737c-2.796-2.814-2.78-7.365,0.037-10.16c2.816-2.797,7.366-2.779,10.16,0.037
	c23.125,23.289,53.441,36.812,85.951,38.477l0.165-46.061l-20.643-0.074l20.808-45.551l0.361-100.803
	c0.013-3.514,2.87-6.351,6.383-6.337c3.51,0.012,6.349,2.87,6.338,6.381l-0.362,100.806l20.478,45.698l-20.643-0.074l-0.165,46.062
	c32.521-1.433,62.932-14.737,86.221-37.86c2.816-2.797,7.366-2.779,10.161,0.038C437.646,375.68,437.628,380.23,434.812,383.026z"/>
</svg>
